<?xml version="1.0" encoding="utf-8"?>
<!-- Generator: Adobe Illustrator 24.0.1, SVG Export Plug-In . SVG Version: 6.00 Build 0)  -->
<svg version="1.1" id="Camada_1" xmlns="http://www.w3.org/2000/svg" xmlns:xlink="http://www.w3.org/1999/xlink" x="0px" y="0px"
	 viewBox="0 0 737 282.4" style="enable-background:new 0 0 737 282.4;" xml:space="preserve">
<style type="text/css">
	.st0{fill:#F0F0F0;}
	.st1{enable-background:new    ;}
</style>
<title>logo_full_white</title>
<g>
	<path class="st0" d="M79,26.3l-0.3-0.8C73.3,16.2,66.4,9.7,57.7,6.1L47.1,2.7l-39-0.2c-2.9,0-5.3,2.2-5.6,5.1v162.8
		c-0.1,3,2.3,5.6,5.4,5.6c0.1,0,0.2,0,0.2,0H11c3,0.1,5.6-2.3,5.6-5.4c0-0.1,0-0.2,0-0.2V82.1h22.8c14.8,0,26.4-5.1,34.4-15.2
		c4.3-5.3,7.1-12.6,8.7-22.4l0.1-3.2l-0.1-0.9C81.6,35.7,80.4,30.9,79,26.3z M40.9,68.9H16.7V16.1h25.2c2.5,0,5,0.3,7.4,0.8
		c13.3,4.9,19.7,12.9,19.7,24.4v2.4c-0.1,2-0.3,4-0.8,5.9C63.4,62.6,54.5,68.9,40.9,68.9L40.9,68.9z"/>
	<path class="st0" d="M8,178.5c-0.1,0-0.1,0-0.2,0c-4.4-0.1-7.9-3.8-7.8-8.2L0,7.6c0-0.1,0-0.2,0-0.2C0.4,3.2,3.9,0,8,0
		c0,0,0.1,0,0.1,0l39,0.2c0.3,0,0.5,0,0.7,0.1l10.6,3.4c0.1,0,0.1,0,0.2,0.1c9.1,3.7,16.6,10.6,22.2,20.6c0,0.1,0.1,0.1,0.1,0.2
		l0.3,0.8c0,0.1,0.1,0.2,0.1,0.3c1.5,4.7,2.7,9.6,3.6,14.4c0,0.1,0,0.1,0,0.2l0.1,0.9c0,0.1,0,0.2,0,0.3L85,44.6c0,0.1,0,0.2,0,0.4
		c-1.7,10.3-4.7,18-9.2,23.6c-8.5,10.7-20.8,16.1-36.4,16.1H19.2v85.7c0,0.1,0,0.2,0,0.3c-0.1,4.4-3.7,7.8-8,7.8c-0.1,0-0.1,0-0.2,0
		l-2.8,0C8.1,178.5,8.1,178.5,8,178.5z M11,173.5c1.7,0.1,3.1-1.3,3.1-3l0-0.1l0-88.2c0-1.4,1.1-2.5,2.5-2.5h22.8
		c14,0,25-4.8,32.5-14.3c4-4.9,6.6-11.8,8.1-21.1l0.1-2.8L80,40.8c-0.9-4.6-2-9.1-3.4-13.6l-0.2-0.5c-5.1-8.9-11.5-14.9-19.6-18.3
		L46.7,5.2L8.1,5C6.5,5,5.2,6.2,5,7.7v162.6c0,1.7,1.3,3.1,3,3.1L11,173.5z M40.9,71.4H16.7c-1.4,0-2.5-1.1-2.5-2.5V16.1
		c0-1.4,1.1-2.5,2.5-2.5h25.2c2.7,0,5.3,0.3,7.9,0.9c0.1,0,0.2,0.1,0.4,0.1c14.1,5.3,21.3,14.2,21.3,26.7v2.4
		c-0.1,2.3-0.4,4.4-0.9,6.5c0,0.1,0,0.2-0.1,0.3C65.4,64.4,55.5,71.4,40.9,71.4z M19.2,66.4h21.7c12.6,0,20.5-5.6,24.8-17.5
		c0.4-1.7,0.6-3.5,0.7-5.3l0-2.3c0-10.4-5.7-17.4-17.9-21.9c-2.2-0.4-4.5-0.7-6.7-0.7H19.2V66.4z"/>
</g>
<g>
	<path class="st0" d="M415.5,26.3l-0.3-0.8c-5.3-9.4-12.2-15.9-20.9-19.5l-10.6-3.4l-39-0.2c-2.9,0-5.3,2.2-5.6,5.1v162.8
		c-0.1,3,2.3,5.6,5.4,5.6c0.1,0,0.2,0,0.2,0h2.9c3,0.1,5.6-2.3,5.6-5.4c0-0.1,0-0.2,0-0.3V82.1H376c14.8,0,26.4-5.1,34.4-15.2
		c4.3-5.3,7.1-12.6,8.7-22.4l0.1-3.2l-0.1-0.9C418.1,35.7,417,30.9,415.5,26.3z M377.4,68.9h-24.2V16.1h25.2c2.5,0,5,0.3,7.4,0.8
		c13.3,5,19.7,12.9,19.7,24.4v2.4c-0.1,2-0.3,4-0.8,5.9C400,62.6,391,68.9,377.4,68.9L377.4,68.9z"/>
	<path class="st0" d="M344.6,178.5c-0.1,0-0.1,0-0.2,0c-4.4-0.1-7.9-3.8-7.8-8.2l0-162.7c0-0.1,0-0.2,0-0.2c0.4-4.2,4-7.4,8.1-7.3
		l39,0.2c0.3,0,0.5,0,0.7,0.1L395,3.7c0.1,0,0.1,0,0.2,0.1c9.1,3.7,16.6,10.6,22.2,20.6c0,0.1,0.1,0.1,0.1,0.2l0.3,0.8
		c0,0.1,0.1,0.2,0.1,0.3c1.5,4.7,2.7,9.6,3.6,14.4c0,0.1,0,0.1,0,0.2l0.1,0.9c0,0.1,0,0.2,0,0.3l-0.1,3.2c0,0.1,0,0.2,0,0.4
		c-1.7,10.3-4.7,18-9.2,23.6c-8.5,10.7-20.8,16.1-36.4,16.1h-20.3v85.7c0,0.1,0,0.2,0,0.3c-0.1,4.4-3.8,8-8.2,7.8l-2.8,0
		C344.6,178.5,344.6,178.5,344.6,178.5z M347.6,173.5C347.6,173.5,347.6,173.5,347.6,173.5c1.8,0,3.1-1.3,3.1-2.9l0-0.1l0-88.2
		c0-1.4,1.1-2.5,2.5-2.5H376c14,0,25-4.8,32.5-14.3c3.9-4.9,6.6-11.8,8.1-21.1l0.1-2.8l-0.1-0.7c-0.9-4.6-2-9.1-3.4-13.6l-0.2-0.5
		c-5.1-8.9-11.5-14.9-19.6-18.3l-10.1-3.2L344.6,5c0,0,0,0,0,0c-1.5,0-2.9,1.2-3.1,2.7v162.6c0,1.7,1.3,3.1,3,3.1L347.6,173.5z
		 M377.4,71.4h-24.2c-1.4,0-2.5-1.1-2.5-2.5V16.1c0-1.4,1.1-2.5,2.5-2.5h25.2c2.7,0,5.3,0.3,7.9,0.9c0.1,0,0.2,0.1,0.4,0.1
		c14.2,5.3,21.4,14.3,21.4,26.7v2.4c-0.1,2.3-0.4,4.4-0.9,6.5c0,0.1-0.1,0.2-0.1,0.3C402,64.4,392,71.4,377.4,71.4z M355.7,66.4
		h21.7c12.6,0,20.5-5.5,24.9-17.4c0.4-1.7,0.6-3.5,0.7-5.3l0-2.3c0-10.4-5.7-17.4-17.9-22c-2.2-0.4-4.5-0.7-6.7-0.7h-22.6V66.4z"/>
</g>
<g>
	<path class="st0" d="M572.1,162.3h-88.3V82.1h39.1c3,0.1,5.6-2.3,5.6-5.4c0-0.1,0-0.2,0-0.3v-1.9c0-2.9-2.1-5.3-5-5.6h-39.7V16.1
		h73.8c3,0.1,5.6-2.3,5.6-5.4c0-0.1,0-0.2,0-0.3V8.1c0-2.9-2.1-5.3-5-5.6h-82.4c-2.9,0-5.3,2.2-5.6,5.1v162.8
		c-0.1,3,2.3,5.6,5.4,5.6c0.1,0,0.2,0,0.2,0h95.6c3,0.1,5.6-2.3,5.6-5.4c0-0.1,0-0.2,0-0.2V168C577.2,165.1,575,162.6,572.1,162.3z"
		/>
	<path class="st0" d="M571.6,178.5c-0.1,0-0.1,0-0.2,0l-95.8,0c-2.2,0-4.2-0.9-5.6-2.5c-1.5-1.5-2.3-3.6-2.2-5.7l0-162.7
		c0-0.1,0-0.2,0-0.2c0.4-4.1,3.9-7.3,8-7.3c0,0,0.1,0,0.1,0h82.4c0.1,0,0.2,0,0.3,0c4.2,0.4,7.3,3.9,7.2,8.1v2.3c0,0.1,0,0.2,0,0.3
		c-0.1,2.1-0.9,4.1-2.5,5.6c-1.5,1.5-3.6,2.2-5.7,2.2l-71.2,0v47.8h37.2c0.1,0,0.2,0,0.3,0c4.2,0.4,7.3,3.9,7.2,8.1v1.9
		c0,0.1,0,0.2,0,0.3c0,2.1-0.9,4.1-2.5,5.6c-1.5,1.5-3.6,2.3-5.7,2.2l-36.5,0v75.2h85.8c0.1,0,0.2,0,0.3,0c4.2,0.4,7.3,3.9,7.3,8.2
		v2.4c0,0.1,0,0.2,0,0.3c0,2.1-0.9,4.1-2.5,5.6C575.7,177.7,573.7,178.5,571.6,178.5z M571.5,173.5c1.7,0.1,3.1-1.3,3.1-3l0-2.6
		c0-1.6-1.1-2.9-2.7-3.1h-88.2c-1.4,0-2.5-1.1-2.5-2.5V82.1c0-1.4,1.1-2.5,2.5-2.5h39.1c0.9,0,1.6-0.3,2.2-0.8
		c0.6-0.6,0.9-1.3,0.9-2.1l0-0.1l0-2c0-1.6-1.1-2.9-2.6-3.1h-39.6c-1.4,0-2.5-1.1-2.5-2.5V16.1c0-1.4,1.1-2.5,2.5-2.5h73.8
		c0.9,0,1.6-0.3,2.2-0.8c0.6-0.6,0.9-1.3,0.9-2.1l0-2.6c0-1.6-1.1-2.9-2.6-3.1h-82.3c-1.6,0-2.9,1.2-3.1,2.7v162.6
		c0,0.9,0.3,1.6,0.8,2.2s1.3,0.9,2.1,0.9l0.2,0H571.5z"/>
</g>
<g>
	<path class="st0" d="M734.5,169l-0.6-1.1c-0.8-1.5-8.7-18.2-41.1-88c0.6-0.2,1.2-0.4,1.9-0.6c17.2-7.7,25.9-20.1,25.9-37
		c0-17.4-8.9-29.9-26.8-37.2l-7.9-2.6h-52.8c-2.9,0-5.3,2.2-5.6,5.1v162.8c-0.1,3,2.3,5.6,5.4,5.6c0.1,0,0.2,0,0.2,0h2.4
		c3,0.1,5.6-2.3,5.6-5.4c0-0.1,0-0.2,0-0.2V16.1h39.1c2.5,0,5,0.3,7.4,0.8c13.3,4.9,19.7,12.9,19.7,24.4v2.4c0,8-3.9,14.9-11.9,21.1
		c-4.8,2.4-10,4-15.4,4.6l-6.3,0.9l2.7,5.7c38.2,82.8,44.5,95.4,46,97.7l1.4,2.2h5c3,0.1,5.6-2.3,5.6-5.4c0-0.1,0-0.2,0-0.2
		L734.5,169z"/>
	<path class="st0" d="M633,178.5c-0.1,0-0.1,0-0.2,0c-2.1,0-4.1-0.9-5.6-2.5s-2.3-3.6-2.2-5.7l0-162.7c0-0.1,0-0.2,0-0.2
		c0.4-4.1,3.9-7.3,8-7.3c0,0,0.1,0,0.1,0h52.8c0.3,0,0.5,0,0.8,0.1l7.9,2.6c0.1,0,0.1,0,0.2,0.1c18.8,7.7,28.3,21,28.3,39.5
		c0,17.8-9,30.9-26.8,39.1c33.1,71.4,39.2,84.2,39.9,85.4l0.6,1.1c0.2,0.4,0.3,0.8,0.3,1.2l0,1.3c0,0.1,0,0.2,0,0.3
		c0,2.1-0.9,4.1-2.5,5.6c-1.5,1.5-3.5,2.3-5.7,2.2l-4.9,0c-0.9,0-1.7-0.4-2.1-1.2l-1.4-2.2c-1.5-2.4-7.9-15.2-46.2-98l-2.6-5.7
		c-0.3-0.7-0.3-1.6,0.1-2.2c0.4-0.7,1.1-1.2,1.9-1.3l6.3-0.9c5.1-0.6,9.9-2,14.4-4.2c7.2-5.7,10.7-11.9,10.7-19v-2.4
		c0-10.4-5.7-17.4-17.9-21.9c-2.2-0.4-4.5-0.7-6.7-0.7h-36.6v151.7c0,0.1,0,0.2,0,0.3c0,2.1-0.9,4.1-2.5,5.6s-3.6,2.3-5.7,2.2
		l-2.3,0C633.1,178.5,633.1,178.5,633,178.5z M635.5,173.5c0.9,0,1.6-0.3,2.2-0.8c0.6-0.6,0.9-1.3,0.9-2.1l0-154.4
		c0-1.4,1.1-2.5,2.5-2.5h39.1c2.7,0,5.3,0.3,7.9,0.9c0.1,0,0.2,0.1,0.4,0.1c14.1,5.3,21.3,14.2,21.3,26.7v2.4
		c0,8.8-4.2,16.4-12.8,23.1c-0.1,0.1-0.3,0.2-0.4,0.3c-5.1,2.6-10.6,4.2-16.2,4.8l-2.8,0.4l1.2,2.7c28.6,62,43.6,93.9,45.9,97.5
		l0.6,1h3.6c0.8,0,1.6-0.3,2.2-0.8c0.6-0.6,0.9-1.3,0.9-2.1l0-0.8l-0.3-0.5c-1.3-2.3-15.1-31.9-41.2-88.1c-0.3-0.6-0.3-1.4,0-2
		c0.3-0.7,0.8-1.2,1.5-1.4c0.6-0.2,1.2-0.4,1.7-0.6c16.1-7.3,24.3-18.9,24.3-34.7c0-16.5-8.2-27.9-25.1-34.8L685.5,5h-52.4
		c0,0,0,0,0,0c-1.6,0-2.9,1.2-3.1,2.7v162.6c0,0.9,0.3,1.6,0.8,2.2c0.6,0.6,1.3,0.9,2.1,0.9L635.5,173.5z"/>
</g>
<g>
	<path class="st0" d="M310.6,165.9l-91.8-160c-1.9-3.2-6-4.3-9.2-2.5c-1,0.6-1.9,1.4-2.5,2.5l-11.3,19.8L184.4,5.9
		c-1.9-3.2-6-4.3-9.2-2.5c-1,0.6-1.9,1.4-2.5,2.5l-91.8,160c-1,1.8-1.2,3.9-0.4,5.8c0.8,2,2.5,3.5,4.6,4.2c0.3,0.1,0.5,0.1,0.8,0.1
		h3.2c1,0,1.8-0.5,2.3-1.3l4.6-8.1l0.1-0.2l82.4-143.6l9.4,16.4l-72.8,126.8c-1.8,3.2-0.7,7.3,2.5,9.2c1,0.6,2.2,0.9,3.3,0.9h183.7
		c3.7,0,6.7-3,6.7-6.7C311.4,168.1,311.1,166.9,310.6,165.9z M132.7,162.5l63.1-109.9l63.1,109.9H132.7L132.7,162.5z M203.5,39.1
		l9.4-16.4l80.2,139.8h-18.9L203.5,39.1z"/>
	<path class="st0" d="M304.7,178.5C304.7,178.5,304.7,178.5,304.7,178.5H121.1c-1.6,0-3.2-0.4-4.6-1.2c-2.1-1.2-3.7-3.2-4.3-5.6
		c-0.6-2.4-0.3-4.9,0.9-7l72-125.5l-6.5-11.4l-85,148.1c-0.9,1.6-2.6,2.6-4.5,2.6h-3.2c-0.5,0-1-0.1-1.5-0.2
		c-2.8-0.8-5.1-2.9-6.2-5.6c-1.1-2.6-0.8-5.6,0.6-8l91.8-160c0.8-1.4,2-2.6,3.4-3.4c4.4-2.5,10.1-1,12.6,3.4l9.2,16l9.2-16
		c0.8-1.4,2-2.6,3.4-3.4c2.1-1.2,4.6-1.6,7-0.9c2.4,0.6,4.4,2.2,5.6,4.3l91.8,160c0.8,1.4,1.2,3,1.2,4.6
		C313.9,174.3,309.8,178.5,304.7,178.5z M178.6,20.2L178.6,20.2c0.9,0,1.7,0.5,2.2,1.3l9.4,16.4c0.4,0.8,0.4,1.7,0,2.5l-72.8,126.8
		c-0.6,1-0.7,2.1-0.4,3.2c0.3,1.1,1,2,2,2.6c0.6,0.4,1.4,0.6,2.1,0.6h183.7c0,0,0,0,0,0c2.3,0,4.2-1.9,4.2-4.2
		c0-0.7-0.2-1.5-0.6-2.1c0,0,0,0,0,0l-91.8-160c-0.6-1-1.5-1.7-2.6-2c-1.1-0.3-2.2-0.1-3.2,0.4c-0.6,0.4-1.2,0.9-1.5,1.5l-11.3,19.7
		c-0.4,0.8-1.3,1.3-2.2,1.3l0,0c-0.9,0-1.7-0.5-2.2-1.3L182.2,7.1c-1.2-2-3.8-2.7-5.8-1.5c-0.6,0.4-1.2,0.9-1.5,1.5l-91.8,160
		c-0.7,1.1-0.7,2.4-0.3,3.6c0.5,1.3,1.6,2.3,3,2.7l0.1,0h3.2c0.1,0,0.1,0,0.2-0.1l87.2-151.9C176.8,20.7,177.7,20.2,178.6,20.2z
		 M293.1,165h-18.9c-0.9,0-1.7-0.5-2.2-1.3L201.3,40.4c-0.4-0.8-0.4-1.7,0-2.5l9.4-16.4c0.4-0.8,1.3-1.3,2.2-1.3s1.7,0.5,2.2,1.3
		l80.2,139.8c0.4,0.8,0.4,1.7,0,2.5C294.9,164.5,294,165,293.1,165z M275.7,160h13.1L212.9,27.8l-6.5,11.4L275.7,160z M258.8,165
		H132.7c-0.9,0-1.7-0.5-2.2-1.2c-0.4-0.8-0.4-1.7,0-2.5l63.1-109.9c0.4-0.8,1.3-1.3,2.2-1.3s1.7,0.5,2.2,1.3l63.1,109.9
		c0.4,0.8,0.4,1.7,0,2.5C260.5,164.5,259.7,165,258.8,165z M137,160h117.5L195.7,57.7L137,160z"/>
</g>
<g class="st1">
	<path class="st0" d="M132,238.4c2.1,1.5,3.5,3.5,4.3,6v-18.6h5.1v41.5h-5.1v-7.9c-0.8,2.5-2.3,4.5-4.3,6s-4.6,2.2-7.6,2.2
		c-2.7,0-5.2-0.6-7.3-1.9c-2.1-1.3-3.8-3.1-5-5.5c-1.2-2.4-1.8-5.2-1.8-8.4c0-3.2,0.6-6,1.8-8.4c1.2-2.4,2.9-4.2,5-5.5
		c2.1-1.3,4.6-1.9,7.3-1.9C127.4,236.1,130,236.9,132,238.4z M118.3,243.7c-1.9,2-2.8,4.8-2.8,8.3c0,3.5,0.9,6.3,2.8,8.3
		c1.9,2,4.4,3,7.5,3c2,0,3.8-0.5,5.4-1.4c1.6-0.9,2.8-2.3,3.7-4c0.9-1.7,1.3-3.7,1.3-5.9c0-2.2-0.4-4.2-1.3-5.9
		c-0.9-1.7-2.1-3-3.7-4c-1.6-0.9-3.4-1.4-5.4-1.4C122.8,240.7,120.2,241.7,118.3,243.7z"/>
	<path class="st0" d="M189,253h-24.6c0.1,3.5,1.1,6.2,3,7.9c1.9,1.8,4.2,2.6,6.9,2.6c2.5,0,4.5-0.6,6.2-1.9c1.7-1.3,2.7-2.9,3.1-5
		h5.4c-0.4,2.1-1.2,4-2.5,5.7c-1.3,1.7-3,3-5,3.9s-4.4,1.4-7,1.4c-3,0-5.6-0.6-7.9-1.9c-2.3-1.3-4.1-3.1-5.4-5.5
		c-1.3-2.4-1.9-5.2-1.9-8.4c0-3.2,0.6-6,1.9-8.4c1.3-2.4,3.1-4.2,5.4-5.5s4.9-1.9,7.9-1.9c3,0,5.6,0.6,7.8,1.9
		c2.2,1.3,3.9,3,5.1,5.1c1.2,2.1,1.8,4.5,1.8,7.1C189.2,251.3,189.1,252.2,189,253z M182.9,244.8c-0.9-1.5-2-2.7-3.5-3.4
		c-1.5-0.7-3.1-1.1-4.9-1.1c-2.8,0-5.2,0.9-7.1,2.6c-1.9,1.7-2.9,4.3-3.1,7.7H184C184.1,248.2,183.8,246.3,182.9,244.8z"/>
	<path class="st0" d="M225.1,238.8c2.1,1.8,3.4,4.3,3.8,7.3h-4.9c-0.2-1.8-1-3.3-2.3-4.5s-3-1.8-5.2-1.8c-1.8,0-3.3,0.4-4.3,1.3
		c-1,0.9-1.5,2.1-1.5,3.6c0,1.1,0.3,2,1,2.7c0.7,0.7,1.6,1.2,2.6,1.6c1,0.4,2.4,0.7,4.2,1.2c2.3,0.5,4.1,1.1,5.5,1.6
		c1.4,0.5,2.6,1.4,3.6,2.6c1,1.2,1.5,2.8,1.5,4.8c0,2.5-0.9,4.5-2.8,6.1s-4.4,2.4-7.5,2.4c-3.7,0-6.7-0.9-9-2.6
		c-2.3-1.8-3.7-4.2-4.1-7.4h4.9c0.2,1.9,1,3.4,2.4,4.5c1.4,1.2,3.3,1.7,5.7,1.7c1.8,0,3.1-0.4,4.1-1.3c1-0.9,1.5-2.1,1.5-3.5
		c0-1.2-0.4-2.2-1.1-2.9c-0.7-0.7-1.6-1.3-2.6-1.6c-1-0.4-2.5-0.8-4.3-1.2c-2.3-0.5-4.1-1-5.5-1.6c-1.4-0.5-2.5-1.4-3.5-2.5
		s-1.4-2.7-1.4-4.6c0-2.6,1-4.7,2.9-6.3c1.9-1.6,4.5-2.4,7.8-2.4C220.2,236.1,223,237,225.1,238.8z"/>
	<path class="st0" d="M247.4,225.2c0.6-0.6,1.5-0.9,2.5-0.9c1,0,1.9,0.3,2.5,0.9c0.6,0.6,1,1.3,1,2.3c0,0.9-0.3,1.7-1,2.3
		c-0.6,0.6-1.5,0.9-2.5,0.9c-1,0-1.9-0.3-2.5-0.9c-0.6-0.6-1-1.3-1-2.3C246.4,226.5,246.8,225.8,247.4,225.2z M252.4,236.5v30.8
		h-5.1v-30.8H252.4z"/>
	<path class="st0" d="M292.1,238.4c2.1,1.5,3.5,3.5,4.3,6v-7.9h5.1v31.3c0,2.8-0.6,5.4-1.8,7.6c-1.2,2.2-2.9,3.9-5.1,5.2
		s-4.7,1.9-7.6,1.9c-4.2,0-7.5-1-10.2-3c-2.6-2-4.3-4.7-5-8.1h5.1c0.6,2.1,1.7,3.7,3.4,4.9c1.7,1.2,3.8,1.8,6.4,1.8
		c2.8,0,5.1-0.9,6.9-2.7c1.8-1.8,2.7-4.3,2.7-7.4v-8.4c-0.8,2.5-2.3,4.5-4.3,6s-4.6,2.2-7.6,2.2c-2.7,0-5.2-0.6-7.3-1.9
		c-2.1-1.3-3.8-3.1-5-5.5c-1.2-2.4-1.8-5.2-1.8-8.4c0-3.2,0.6-6,1.8-8.4c1.2-2.4,2.9-4.2,5-5.5c2.1-1.3,4.6-1.9,7.3-1.9
		C287.5,236.1,290,236.9,292.1,238.4z M278.4,243.7c-1.9,2-2.8,4.8-2.8,8.3c0,3.5,0.9,6.3,2.8,8.3c1.9,2,4.4,3,7.5,3
		c2,0,3.8-0.5,5.4-1.4c1.6-0.9,2.8-2.3,3.7-4c0.9-1.7,1.3-3.7,1.3-5.9c0-2.2-0.4-4.2-1.3-5.9c-0.9-1.7-2.1-3-3.7-4
		c-1.6-0.9-3.4-1.4-5.4-1.4C282.8,240.7,280.3,241.7,278.4,243.7z"/>
	<path class="st0" d="M345.8,239.4c2.2,2.3,3.3,5.6,3.3,10v17.9H344v-17.5c0-3.1-0.8-5.4-2.4-7.1c-1.6-1.6-3.7-2.5-6.4-2.5
		c-2.8,0-5.1,0.9-6.7,2.7c-1.7,1.8-2.5,4.5-2.5,7.9v16.3h-5.1v-30.8h5.1v7.3c0.8-2.5,2.2-4.4,4.2-5.8c2-1.3,4.3-2,6.9-2
		C340.7,236,343.6,237.1,345.8,239.4z"/>
	<path class="st0" d="M411.4,238.8c2.1,1.8,3.4,4.3,3.8,7.3h-4.9c-0.2-1.8-1-3.3-2.3-4.5s-3-1.8-5.2-1.8c-1.8,0-3.3,0.4-4.3,1.3
		c-1,0.9-1.5,2.1-1.5,3.6c0,1.1,0.3,2,1,2.7c0.7,0.7,1.6,1.2,2.6,1.6c1,0.4,2.4,0.7,4.2,1.2c2.3,0.5,4.1,1.1,5.5,1.6
		c1.4,0.5,2.6,1.4,3.6,2.6c1,1.2,1.5,2.8,1.5,4.8c0,2.5-0.9,4.5-2.8,6.1s-4.4,2.4-7.5,2.4c-3.7,0-6.7-0.9-9-2.6
		c-2.3-1.8-3.7-4.2-4.1-7.4h4.9c0.2,1.9,1,3.4,2.4,4.5c1.4,1.2,3.3,1.7,5.7,1.7c1.8,0,3.1-0.4,4.1-1.3c1-0.9,1.5-2.1,1.5-3.5
		c0-1.2-0.4-2.2-1.1-2.9c-0.7-0.7-1.6-1.3-2.6-1.6c-1-0.4-2.5-0.8-4.3-1.2c-2.3-0.5-4.1-1-5.5-1.6c-1.4-0.5-2.5-1.4-3.5-2.5
		s-1.4-2.7-1.4-4.6c0-2.6,1-4.7,2.9-6.3c1.9-1.6,4.5-2.4,7.8-2.4C406.4,236.1,409.2,237,411.4,238.8z"/>
	<path class="st0" d="M448.2,262.8v4.5h-3.8c-3.1,0-5.5-0.7-7-2.2c-1.6-1.5-2.3-4-2.3-7.5v-16.6h-4.6v-4.4h4.6v-7.7h5.2v7.7h8v4.4
		h-8v16.7c0,2,0.4,3.3,1.1,4.1s2,1.1,3.8,1.1H448.2z"/>
	<path class="st0" d="M493.1,236.5v30.8H488v-7.2c-0.8,2.5-2.2,4.4-4.2,5.8c-2,1.3-4.3,2-7,2c-3.6,0-6.4-1.2-8.6-3.5
		c-2.2-2.3-3.3-5.6-3.3-9.9v-18h5.1V254c0,3.1,0.8,5.4,2.4,7.1c1.6,1.7,3.7,2.5,6.4,2.5c2.8,0,5.1-0.9,6.7-2.7s2.5-4.5,2.5-7.9
		v-16.4H493.1z"/>
	<path class="st0" d="M532.7,238.4c2.1,1.5,3.5,3.5,4.3,6v-18.6h5.1v41.5h-5.1v-7.9c-0.8,2.5-2.3,4.5-4.3,6s-4.6,2.2-7.6,2.2
		c-2.7,0-5.2-0.6-7.3-1.9c-2.1-1.3-3.8-3.1-5-5.5c-1.2-2.4-1.8-5.2-1.8-8.4c0-3.2,0.6-6,1.8-8.4c1.2-2.4,2.9-4.2,5-5.5
		c2.1-1.3,4.6-1.9,7.3-1.9C528.1,236.1,530.7,236.9,532.7,238.4z M519,243.7c-1.9,2-2.8,4.8-2.8,8.3c0,3.5,0.9,6.3,2.8,8.3
		c1.9,2,4.4,3,7.5,3c2,0,3.8-0.5,5.4-1.4c1.6-0.9,2.8-2.3,3.7-4c0.9-1.7,1.3-3.7,1.3-5.9c0-2.2-0.4-4.2-1.3-5.9
		c-0.9-1.7-2.1-3-3.7-4c-1.6-0.9-3.4-1.4-5.4-1.4C523.4,240.7,520.9,241.7,519,243.7z"/>
	<path class="st0" d="M561.6,225.2c0.6-0.6,1.5-0.9,2.5-0.9c1,0,1.9,0.3,2.5,0.9c0.6,0.6,1,1.3,1,2.3c0,0.9-0.3,1.7-1,2.3
		c-0.6,0.6-1.5,0.9-2.5,0.9c-1,0-1.9-0.3-2.5-0.9c-0.6-0.6-1-1.3-1-2.3C560.7,226.5,561,225.8,561.6,225.2z M566.7,236.5v30.8h-5.1
		v-30.8H566.7z"/>
	<path class="st0" d="M608,238c2.3,1.3,4.2,3.1,5.5,5.5c1.3,2.4,2,5.2,2,8.4c0,3.2-0.7,6-2,8.4c-1.3,2.4-3.2,4.2-5.5,5.5
		c-2.3,1.3-5,1.9-7.9,1.9c-3,0-5.6-0.6-7.9-1.9c-2.3-1.3-4.2-3.1-5.5-5.5c-1.3-2.4-2-5.2-2-8.4c0-3.2,0.7-6,2-8.4
		c1.3-2.4,3.2-4.2,5.5-5.5c2.3-1.3,5-1.9,7.9-1.9C603,236.1,605.7,236.7,608,238z M595,241.8c-1.6,0.8-2.8,2.1-3.8,3.8
		c-1,1.7-1.4,3.8-1.4,6.3c0,2.5,0.5,4.6,1.4,6.3s2.2,3,3.8,3.8c1.6,0.8,3.2,1.2,5.1,1.2s3.5-0.4,5.1-1.2c1.6-0.8,2.8-2.1,3.8-3.8
		s1.4-3.8,1.4-6.3c0-2.5-0.5-4.6-1.4-6.3c-1-1.7-2.2-3-3.8-3.8c-1.6-0.8-3.2-1.2-5.1-1.2S596.5,241,595,241.8z"/>
</g>
</svg>
