<svg id="Camada_1" data-name="Camada 1" xmlns="http://www.w3.org/2000/svg" viewBox="0 0 50 20"><defs><style>.cls-1,.cls-2{fill:#1b1b1b;}.cls-2{font-size:3.8px;font-family:Poppins-Thin, Poppins;font-weight:200;letter-spacing:0.2em;}</style></defs><title>logo</title><path class="cls-1" d="M5.46,1.61l0-.05A3,3,0,0,0,4,.24L3.31,0,.67,0A.37.37,0,0,0,.29.34v11a.37.37,0,0,0,.38.38H.86a.38.38,0,0,0,.39-.38v-6H2.79a2.8,2.8,0,0,0,2.33-1,3.14,3.14,0,0,0,.59-1.52V2.57A8.15,8.15,0,0,0,5.46,1.61ZM2.88,4.5H1.25V.93H3a3.24,3.24,0,0,1,.5,0A1.7,1.7,0,0,1,4.78,2.63v.16a2.44,2.44,0,0,1,0,.41A1.8,1.8,0,0,1,2.88,4.5Z"/><path class="cls-1" d="M28.26,1.61l0-.05A3,3,0,0,0,26.82.24L26.1,0,23.46,0a.38.38,0,0,0-.38.34v11a.37.37,0,0,0,.38.38h.2a.38.38,0,0,0,.38-.38v-6h1.54a2.8,2.8,0,0,0,2.33-1,3.14,3.14,0,0,0,.59-1.52V2.57A8.15,8.15,0,0,0,28.26,1.61ZM25.68,4.5H24V.93h1.7a3.13,3.13,0,0,1,.5,0,1.71,1.71,0,0,1,1.34,1.65v.16a1.9,1.9,0,0,1-.06.41A1.8,1.8,0,0,1,25.68,4.5Z"/><path class="cls-1" d="M38.87,10.82h-6V5.39h2.64A.38.38,0,0,0,35.92,5V4.88a.38.38,0,0,0-.34-.38H32.89V.93h5a.37.37,0,0,0,.38-.38V.38A.38.38,0,0,0,37.92,0H32.34A.38.38,0,0,0,32,.34v11a.37.37,0,0,0,.38.38h6.49a.38.38,0,0,0,.38-.38V11.2A.39.39,0,0,0,38.87,10.82Z"/><path class="cls-1" d="M49.86,11.28l0-.07c-.06-.11-.59-1.24-2.78-6l.13,0a2.62,2.62,0,0,0,1.75-2.5A2.57,2.57,0,0,0,47.11.18L46.57,0H43a.37.37,0,0,0-.38.34v11a.38.38,0,0,0,.39.38h.16a.37.37,0,0,0,.38-.38V.93h2.65a3.24,3.24,0,0,1,.5,0A1.7,1.7,0,0,1,48,2.63v.16a1.77,1.77,0,0,1-.8,1.43,2.84,2.84,0,0,1-1,.31l-.42.06.18.39c2.58,5.61,3,6.46,3.11,6.62l.09.15h.34a.37.37,0,0,0,.38-.38Z"/><path class="cls-1" d="M21.15,11.07,14.93.23a.45.45,0,0,0-.79,0l-.77,1.34L12.6.23A.45.45,0,0,0,12.21,0a.48.48,0,0,0-.4.23L5.59,11.07a.44.44,0,0,0,0,.39.46.46,0,0,0,.31.28h.27a.22.22,0,0,0,.16-.09l.31-.55h0l5.58-9.73.64,1.11L7.92,11.07a.46.46,0,0,0,.39.68H20.76a.46.46,0,0,0,.39-.68Zm-12-.23L13.37,3.4l4.27,7.44H9.1Zm4.8-8.36.64-1.11L20,10.84H18.69Z"/><text class="cls-2" transform="translate(7.83 17.94)">design studio</text></svg>